<?xml version="1.0" encoding="UTF-8"?>
<svg id="Bakery" xmlns="http://www.w3.org/2000/svg" viewBox="0 0 841.89 841.89">
  <defs>
    <style>
      .cls-1 {
        fill: #978c8a;
      }

      .cls-2 {
        stroke-dasharray: 23.76 23.76;
        stroke-width: 7px;
      }

      .cls-2, .cls-3, .cls-4, .cls-5 {
        stroke: #231f20;
      }

      .cls-2, .cls-5 {
        fill: none;
        stroke-linecap: round;
        stroke-linejoin: round;
      }

      .cls-6 {
        fill: #f69182;
      }

      .cls-7, .cls-8 {
        fill: #231f20;
      }

      .cls-3 {
        fill: #030304;
        stroke-width: .25px;
      }

      .cls-3, .cls-4 {
        stroke-miterlimit: 10;
      }

      .cls-9 {
        fill: #ffdda1;
      }

      .cls-4 {
        fill: #f0e9d6;
      }

      .cls-4, .cls-5 {
        stroke-width: 3px;
      }

      .cls-10 {
        fill: #f9b19d;
      }

      .cls-11 {
        fill: #040405;
      }

      .cls-8 {
        font-family: Rockwell-CondensedBold, 'Rockwell Condensed';
        font-size: 42px;
        font-weight: 700;
      }
    </style>
  </defs>
  <g>
    <circle class="cls-4" cx="421.71" cy="420.94" r="263.8"/>
    <circle class="cls-2" cx="421.71" cy="420.94" r="226.87"/>
    <path class="cls-10" d="M510.25,406.61s21.55-18.86,25.53-27.32c1.88-3.99,2.06-15.97,6.45-16.43,4.33-.45,9.55,10.2,9.57,14.55.06,11.07-6.35,34.07-14.11,41.96-5.19,5.27-26.68,12.77-26.68,12.77l-.77-25.53Z"/>
    <path class="cls-9" d="M344.8,424.92c-.77,10.79,2.05,21.03,7.85,30.83,13.76-6.56,21.61-10.04,25.28,2.68l107.43,12.45c-2.29-8.17-5.08-18.52-5.11-27.17,11.38-.95,22.3-3.4,32.55-8.04,2.2-8.41.91-19.22-1.59-30.85-16.62-3.48-30.34-4.52-39.26-1.53h-96.89s-30.26,21.64-30.26,21.64Z"/>
    <path class="cls-10" d="M346.97,428.57c-11.12,3.31-25.7,4.78-35.78-3.83-23.63-20.17-31.73,12.68-6.1,17.74,11.39,2.25,20.46,11.17,31.53,15.57,8.04-.16,14.75-1.87,18.64-6.89l-8.3-22.6Z"/>
    <path class="cls-11" d="M393.89,403.28h9.2c-.67,12.29-1.93,23.35-1.99,34.86l53.61-.63c1.54-12.28.84-23.23,1.19-34.23h9.38s-.38,34.91-.38,34.91c-.56,18.83,7.78,27,20.2,30.26,0,0,10.65,59.77-1.66,72.97-24.76,26.56-110.44,29.05-128.55-2.43-9.34-16.24,19.79-80.7,19.77-80.84,7.68-.05,13.06-3.64,15.2-17.59l4.03-37.29Z"/>
    <path class="cls-5" d="M292.53,454.86c6.39-13.69,8.53-16.38,11.28-30.7"/>
    <path class="cls-5" d="M305.19,417.21s-12.47-23.4-11.06-38.48c.72-7.77,1.59-16.99,8.94-21.33,6.29-3.71,15.53-2.78,20.83,2.29,6.3,6.04,4.65,15.68,3.41,22.99-2.74,16.07-22.12,34.52-22.12,34.52Z"/>
    <path class="cls-5" d="M304.96,419.25c-1.04-5.63-2.53-14.65-3.49-25.1-.45-4.87-.87-11.58.94-19.12.07-.28.13-.52.18-.71,2.46-9.19,5.4-13.3,7.22-15.17,1.5-1.54,3.64-2.74,7.06-1.57,4.74,1.61,6.28,10.76,6.1,13.54-.47,6.99-2.26,12.69-8.43,27.02-2.4,5.58-5.6,12.78-9.58,21.12Z"/>
  </g>
  <g id="Face">
    <path class="cls-10" d="M485.93,370.59c.04,2.93-.16,5.7-.58,8.3-2.28,14.39-11.15,23.94-23.31,28.87-18.18,11.48-34.85,10.67-53.6-.66-7.13-5.26-13.59-12.55-19.53-21.45-4.35,1.07-8.4-2.59-12.25-9.32-.15-.16-.29-.32-.42-.48.09-13.12,10.98-12.64,14.59-12.41,12.3-5.45,20.81-15.86,26.94-29.39,2.92-4.38,4.58-9.9,5.42-16.15,5.55,3.96,12.72,7.38,20.69,10.53,11.51,3.5,22.82,3.68,33.92.16,4.97,10.61,7.92,22.26,8.21,35.23.06,2.21.03,4.47-.08,6.77Z"/>
    <path class="cls-9" d="M493.76,285.57c-1.16,13.76-2.74,26.32-5.57,35.21-2.65-4.12-6.58-6.97-11.96-8.4-16.22-4.73-33.72-4.6-52.72,1.27-23.77,7.12-44.13,19.01-58.22,39.71,0,.01.01.03.01.04-28.71,3.54-44.47-6.64-45.54-32.34-3.23-18.47,34.37-46.28,37.53-42.9-13.21-11.02,23.49-70.49,92.17-34.59,40.79-9.04,55.35,5.15,44.3,42Z"/>
    <g>
      <path class="cls-3" d="M485.93,370.59c.74-15.73-2.31-29.57-8.13-42-11.1,3.52-22.41,3.34-33.92-.16-7.97-3.15-15.14-6.57-20.69-10.53-.84,6.25-2.5,11.77-5.42,16.15-6.13,13.53-14.64,23.94-26.94,29.39-3.61-.23-14.5-.71-14.59,12.41-4.41-5-7.91-12.97-10.94-22.45,0-.01-.01-.03-.01-.04,14.09-20.7,34.45-32.59,58.22-39.71,19-5.87,36.5-6,52.72-1.27,5.38,1.43,9.31,4.28,11.96,8.4,2.92,4.49,4.31,10.48,4.38,17.77,1.07,11.93-.77,22.75-6.64,32.04Z"/>
      <path class="cls-7" d="M360.61,349.27c-1.54-12.78,9.16-28.31,17.04-37.77,18.21-21.3,45.05-37.8,73.84-36.92,14.23.43,28.01,5.61,39.46,13.92-11.98-7.29-25.69-11.55-39.5-11.58-27.97.05-53.61,15.95-72.04,36.12-8.06,9.18-19.19,23.54-18.8,36.23h0Z"/>
      <path class="cls-7" d="M360.49,289.4c2.75,4.09,5.45,7.92,8.81,11.43,3.32,3.55,7.01,6.51,10.71,9.78-9.75-2.5-18.23-11.07-19.52-21.21h0Z"/>
      <path class="cls-7" d="M395.59,277.14c4.18,3.47,6.91,7.77,9.88,12.26-5.56-1.16-9.39-6.81-9.88-12.26h0Z"/>
      <path class="cls-7" d="M457.63,254.8c3.47,6.6,2.85,15.89-2.81,21.09,1.78-7.07,2.06-13.87,2.81-21.09h0Z"/>
    </g>
    <path class="cls-6" d="M434.01,373.27c5.65,3.75,24.02.55,26.81-1.79,0,0-5.74,13.65-10.98,13.31-4.89-.31-15.83-11.52-15.83-11.52Z"/>
    <circle class="cls-6" cx="410.77" cy="375.42" r="9.38"/>
    <path class="cls-6" d="M485.93,370.59c.04,2.93-.16,5.7-.58,8.3-.54.14-1.1.21-1.67.21-4.02,0-7.27-3.51-7.27-7.85s3.25-7.85,7.27-7.85c.82,0,1.6.15,2.33.42.06,2.21.03,4.47-.08,6.77Z"/>
  </g>
  <path class="cls-1" d="M587.08,552.92c-32.28,35.74-165.4,75.34-184.09,55.56-8.41-8.9-7.85-51.62,4.06-48.79,30.71,7.3,114.08-17.09,141.69-48.6,10.31-11.76,48.82,30.22,38.34,41.83Z"/>
  <path class="cls-1" d="M497.58,544.9c-49.52,29.15-215.68,23.06-221.43-6.5-2.43-12.48,23.7-54.29,33.11-47.99,25.24,16.88,120.24,20.12,159.96-1.74,14.2-7.82,43.64,47.23,28.35,56.23Z"/>
  <text class="cls-8" transform="translate(327.12 539.93) rotate(12.02)"><tspan x="0" y="0">Q</tspan></text>
  <text class="cls-8" transform="translate(357.15 545.85) rotate(5.03)"><tspan x="0" y="0">u</tspan></text>
  <text class="cls-8" transform="translate(386.67 547.78) rotate(-1.46)"><tspan x="0" y="0">i</tspan></text>
  <text class="cls-8" transform="translate(407.03 546.99) rotate(-7.92)"><tspan x="0" y="0">c</tspan></text>
  <text class="cls-8" transform="translate(432.56 542.99) rotate(-15.49)"><tspan x="0" y="0">k</tspan></text>
  <text class="cls-8" transform="translate(442.46 596.75) rotate(-9.61)"><tspan x="0" y="0">C</tspan></text>
  <text class="cls-8" transform="translate(470.42 591.55) rotate(-16.57)"><tspan x="0" y="0">a</tspan></text>
  <text class="cls-8" transform="translate(497.58 582.93) rotate(-23.64)"><tspan x="0" y="0">k</tspan></text>
  <text class="cls-8" transform="translate(522.89 571.27) rotate(-30.33)"><tspan x="0" y="0">e</tspan></text>
  <text class="cls-8" transform="translate(544.56 558.08) rotate(-35.99)"><tspan x="0" y="0">s</tspan></text>
</svg>